<mxfile>
    <diagram id="eMDRjAzCHqSsySHm6xyu" name="Main Structure">
        <mxGraphModel dx="906" dy="445" grid="1" gridSize="10" guides="1" tooltips="1" connect="1" arrows="1" fold="1" page="1" pageScale="1" pageWidth="827" pageHeight="1169" background="#36455C" math="0" shadow="0">
            <root>
                <mxCell id="0"/>
                <mxCell id="1" parent="0"/>
                <mxCell id="j4jTZ7e2hNYMvXi3JBT9-1" value="Covid-19 Information Center" style="rounded=1;whiteSpace=wrap;html=1;" parent="1" vertex="1">
                    <mxGeometry x="320" y="70" width="224" height="50" as="geometry"/>
                </mxCell>
                <mxCell id="j4jTZ7e2hNYMvXi3JBT9-2" value="Frontend&lt;br&gt;React and Material Ui&lt;br&gt;and React chart" style="rounded=1;whiteSpace=wrap;html=1;" parent="1" vertex="1">
                    <mxGeometry x="190" y="190" width="224" height="50" as="geometry"/>
                </mxCell>
                <mxCell id="j4jTZ7e2hNYMvXi3JBT9-3" value="Backend&lt;br&gt;when Login request come user will be kik in the Authontication flow automatic" style="rounded=1;whiteSpace=wrap;html=1;" parent="1" vertex="1">
                    <mxGeometry x="450" y="190" width="230" height="60" as="geometry"/>
                </mxCell>
                <mxCell id="j4jTZ7e2hNYMvXi3JBT9-6" value="" style="endArrow=classic;html=1;rounded=0;edgeStyle=orthogonalEdgeStyle;exitX=0;exitY=0.5;exitDx=0;exitDy=0;entryX=0.5;entryY=0;entryDx=0;entryDy=0;" parent="1" source="j4jTZ7e2hNYMvXi3JBT9-1" target="j4jTZ7e2hNYMvXi3JBT9-2" edge="1">
                    <mxGeometry width="50" height="50" relative="1" as="geometry">
                        <mxPoint x="390" y="410" as="sourcePoint"/>
                        <mxPoint x="150" y="130" as="targetPoint"/>
                    </mxGeometry>
                </mxCell>
                <mxCell id="j4jTZ7e2hNYMvXi3JBT9-7" value="" style="endArrow=classic;html=1;rounded=0;edgeStyle=orthogonalEdgeStyle;exitX=1;exitY=0.5;exitDx=0;exitDy=0;entryX=0.5;entryY=0;entryDx=0;entryDy=0;" parent="1" source="j4jTZ7e2hNYMvXi3JBT9-1" target="j4jTZ7e2hNYMvXi3JBT9-3" edge="1">
                    <mxGeometry relative="1" as="geometry">
                        <mxPoint x="330" y="390" as="sourcePoint"/>
                        <mxPoint x="430" y="390" as="targetPoint"/>
                    </mxGeometry>
                </mxCell>
                <mxCell id="j4jTZ7e2hNYMvXi3JBT9-8" value="" style="shape=message;html=1;outlineConnect=0;" parent="j4jTZ7e2hNYMvXi3JBT9-7" vertex="1">
                    <mxGeometry width="20" height="14" relative="1" as="geometry">
                        <mxPoint x="-10" y="-7" as="offset"/>
                    </mxGeometry>
                </mxCell>
                <mxCell id="j4jTZ7e2hNYMvXi3JBT9-11" value="Google Oauth 2&lt;br&gt;Passport Js And Google Flow" style="rounded=1;whiteSpace=wrap;html=1;" parent="1" vertex="1">
                    <mxGeometry x="450" y="320" width="224" height="50" as="geometry"/>
                </mxCell>
                <mxCell id="j4jTZ7e2hNYMvXi3JBT9-12" value="MongoDb Atlas&lt;br&gt;Save user data to ckeck later" style="rounded=1;whiteSpace=wrap;html=1;" parent="1" vertex="1">
                    <mxGeometry x="450" y="440" width="224" height="50" as="geometry"/>
                </mxCell>
                <mxCell id="j4jTZ7e2hNYMvXi3JBT9-13" value="" style="endArrow=classic;html=1;rounded=0;edgeStyle=orthogonalEdgeStyle;exitX=0.5;exitY=1;exitDx=0;exitDy=0;entryX=0.5;entryY=0;entryDx=0;entryDy=0;" parent="1" source="j4jTZ7e2hNYMvXi3JBT9-3" target="j4jTZ7e2hNYMvXi3JBT9-11" edge="1">
                    <mxGeometry relative="1" as="geometry">
                        <mxPoint x="330" y="390" as="sourcePoint"/>
                        <mxPoint x="430" y="390" as="targetPoint"/>
                    </mxGeometry>
                </mxCell>
                <mxCell id="j4jTZ7e2hNYMvXi3JBT9-14" value="" style="shape=message;html=1;outlineConnect=0;" parent="j4jTZ7e2hNYMvXi3JBT9-13" vertex="1">
                    <mxGeometry width="20" height="14" relative="1" as="geometry">
                        <mxPoint x="-10" y="-7" as="offset"/>
                    </mxGeometry>
                </mxCell>
                <mxCell id="j4jTZ7e2hNYMvXi3JBT9-15" value="" style="endArrow=classic;html=1;rounded=0;edgeStyle=orthogonalEdgeStyle;exitX=0.5;exitY=1;exitDx=0;exitDy=0;entryX=0.5;entryY=0;entryDx=0;entryDy=0;" parent="1" source="j4jTZ7e2hNYMvXi3JBT9-11" target="j4jTZ7e2hNYMvXi3JBT9-12" edge="1">
                    <mxGeometry relative="1" as="geometry">
                        <mxPoint x="330" y="390" as="sourcePoint"/>
                        <mxPoint x="562" y="430" as="targetPoint"/>
                    </mxGeometry>
                </mxCell>
                <mxCell id="j4jTZ7e2hNYMvXi3JBT9-16" value="" style="shape=message;html=1;outlineConnect=0;" parent="j4jTZ7e2hNYMvXi3JBT9-15" vertex="1">
                    <mxGeometry width="20" height="14" relative="1" as="geometry">
                        <mxPoint x="-10" y="-7" as="offset"/>
                    </mxGeometry>
                </mxCell>
                <mxCell id="j4jTZ7e2hNYMvXi3JBT9-17" value="Civid-19 Api&lt;br&gt;Fetch data with Axios" style="rounded=1;whiteSpace=wrap;html=1;" parent="1" vertex="1">
                    <mxGeometry x="190" y="350" width="224" height="50" as="geometry"/>
                </mxCell>
                <mxCell id="j4jTZ7e2hNYMvXi3JBT9-18" value="" style="endArrow=classic;html=1;rounded=0;edgeStyle=orthogonalEdgeStyle;entryX=0.5;entryY=1;entryDx=0;entryDy=0;exitX=0.5;exitY=0;exitDx=0;exitDy=0;" parent="1" source="j4jTZ7e2hNYMvXi3JBT9-17" target="j4jTZ7e2hNYMvXi3JBT9-2" edge="1">
                    <mxGeometry relative="1" as="geometry">
                        <mxPoint x="460" y="330" as="sourcePoint"/>
                        <mxPoint x="560" y="330" as="targetPoint"/>
                    </mxGeometry>
                </mxCell>
                <mxCell id="j4jTZ7e2hNYMvXi3JBT9-19" value="" style="shape=message;html=1;outlineConnect=0;" parent="j4jTZ7e2hNYMvXi3JBT9-18" vertex="1">
                    <mxGeometry width="20" height="14" relative="1" as="geometry">
                        <mxPoint x="-10" y="-7" as="offset"/>
                    </mxGeometry>
                </mxCell>
                <mxCell id="5" value="&lt;span style=&quot;text-align: left&quot;&gt;https://www.npmjs.com/package/axios&lt;/span&gt;Save user data to ckeck later&lt;br&gt;&lt;span style=&quot;text-align: left&quot;&gt;https://material-ui.com/&lt;br&gt;&lt;/span&gt;&lt;span style=&quot;text-align: left&quot;&gt;https://recharts.org/en-US&lt;/span&gt;&lt;span style=&quot;text-align: left&quot;&gt;&lt;br&gt;&lt;/span&gt;" style="rounded=1;whiteSpace=wrap;html=1;" vertex="1" parent="1">
                    <mxGeometry x="20" y="570" width="458" height="50" as="geometry"/>
                </mxCell>
                <mxCell id="15" value="Libraries" style="text;html=1;strokeColor=#3A5431;fillColor=#6d8764;align=center;verticalAlign=middle;whiteSpace=wrap;rounded=0;fontColor=#ffffff;" vertex="1" parent="1">
                    <mxGeometry x="30" y="540" width="80" height="20" as="geometry"/>
                </mxCell>
            </root>
        </mxGraphModel>
    </diagram>
</mxfile>